<?xml version="1.0" encoding="utf-8"?><svg viewBox="0 0 140 139" xmlns="http://www.w3.org/2000/svg" xmlns:xlink="http://www.w3.org/1999/xlink"><style>:root>svg{display:none}:root>svg:target{display:block}</style><svg viewBox="0 0 16 16" id="arrow-for-button" xmlns="http://www.w3.org/2000/svg"><path d="M15.707 8.707a1 1 0 000-1.414L9.343.929A1 1 0 007.93 2.343L13.586 8l-5.657 5.657a1 1 0 101.414 1.414l6.364-6.364zM0 9h15V7H0v2z"/></svg><svg viewBox="0 0 16 15" id="author" xmlns="http://www.w3.org/2000/svg"><path fill-rule="evenodd" clip-rule="evenodd" d="M8 8a3 3 0 100-6 3 3 0 000 6zm0 2A5 5 0 108 0a5 5 0 000 10z"/><path fill-rule="evenodd" clip-rule="evenodd" d="M15.939 15A8.004 8.004 0 00.063 15h15.876zM2.803 13h10.395a6.001 6.001 0 00-10.395 0z"/></svg><svg viewBox="0 0 31 30" id="chain" xmlns="http://www.w3.org/2000/svg"><path d="M17.987 12.504l-1.5-1.5a3 3 0 00-4.242 0l-9.723 9.723a3 3 0 000 4.243l2.481 2.481a3 3 0 004.243 0l3.568-3.568"/><path d="M12.814 17.672l1.5 1.5a3 3 0 004.242 0l9.723-9.723a3 3 0 000-4.243l-2.481-2.481a3 3 0 00-4.243 0l-3.568 3.568"/></svg><svg viewBox="0 0 16 9" id="check-arrow" xmlns="http://www.w3.org/2000/svg"><path d="M.47 7.47a.75.75 0 001.06 1.06L.47 7.47zM8 1l.53-.53a.75.75 0 00-1.06 0L8 1zm6.47 7.53a.75.75 0 101.06-1.06l-1.06 1.06zm-12.94 0l7-7L7.47.47l-7 7 1.06 1.06zm5.94-7l7 7 1.06-1.06-7-7-1.06 1.06z"/></svg><svg viewBox="0 0 12 9" id="checkbox-galka" xmlns="http://www.w3.org/2000/svg"><path d="M2.38 3.735A1 1 0 00.965 5.149L2.38 3.735zm2.105 3.519l-.708.707a1 1 0 001.415 0l-.707-.707zm6.895-5.48A1 1 0 009.965.358l1.415 1.414zM.965 5.148L3.778 7.96l1.414-1.414L2.38 3.735.965 5.149zM5.192 7.96l6.188-6.188L9.965.36 3.777 6.547 5.192 7.96z"/></svg><svg viewBox="0 0 26 26" id="close-modal" xmlns="http://www.w3.org/2000/svg"><path d="M1 1l24 24M25 1L1 25"/></svg><svg viewBox="0 0 140 139" id="cross" xmlns="http://www.w3.org/2000/svg"><path d="M109.713.438L70.312 39.84 30.757.285.9 30.142l39.555 39.555L1.062 109.08l29.857 29.857 39.393-39.384 39.239 39.24 29.857-29.857-39.239-39.24 39.401-39.401L109.713.438z" fill="#2DAB49"/></svg><svg viewBox="0 0 27 19" id="galka" xmlns="http://www.w3.org/2000/svg"><path d="M2.167 9.47a1 1 0 00-1.414 1.414L2.167 9.47zm6.792 8.206l-.707.707a1 1 0 001.414 0l-.707-.707zM26.167 1.882A1 1 0 1024.753.468l1.414 1.414zM.753 10.884l7.499 7.499 1.414-1.414-7.499-7.5-1.414 1.415zm8.913 7.499L26.167 1.882 24.753.468l-16.501 16.5 1.414 1.415z"/></svg><svg viewBox="0 0 22 22" id="ig" xmlns="http://www.w3.org/2000/svg"><path fill-rule="evenodd" clip-rule="evenodd" d="M2.74 0A2.74 2.74 0 000 2.74v16.52A2.74 2.74 0 002.74 22h16.52A2.74 2.74 0 0022 19.26V2.74A2.74 2.74 0 0019.26 0H2.74zM19 4.5a1.5 1.5 0 11-3 0 1.5 1.5 0 013 0zM17 12a6 6 0 11-12 0 6 6 0 0112 0z"/><circle cx="11" cy="12" r="4"/></svg><svg viewBox="0 0 53 19" id="logo" xmlns="http://www.w3.org/2000/svg"><path d="M22.194 2.461L18.02 6.61l-4.19-4.164-3.163 3.143 4.19 4.163-4.173 4.146 3.163 3.143 4.173-4.146 4.157 4.13 3.163-3.142-4.157-4.13 4.174-4.148-3.163-3.143zM0 4.803h2.352v13.704h5.33V4.803h2.34V.469H0v4.334zM32.851.469h-6.17v18.038h6.182c2.02 0 3.592-.529 4.716-1.585 1.123-1.057 1.678-2.607 1.678-4.663V6.716c0-2.054-.567-3.605-1.69-4.662C36.443.997 34.87.469 32.85.469zm1.088 12.025c0 1.116-.366 1.68-1.088 1.68h-.85V4.803h.85c.722 0 1.088.563 1.088 1.68v6.011zM46.453 8.526v3.852h1.217v.599c0 1.115-.366 1.68-1.087 1.68-.722 0-1.088-.564-1.088-1.68V6c0-1.115.366-1.68 1.088-1.68.721 0 1.087.564 1.087 1.68v1.327h5.319v-1.08c0-2.055-.567-3.606-1.691-4.663C50.175.528 48.604 0 46.583 0c-2.022 0-3.593.528-4.717 1.585-1.123 1.057-1.69 2.62-1.69 4.674v6.482c0 2.055.462 3.617 1.372 4.674.91 1.057 2.186 1.585 3.83 1.585 1.926 0 3.344-.717 4.242-2.137v1.656H53V8.538l-6.547-.012z"/></svg><svg viewBox="0 0 10 10" id="plus-small" xmlns="http://www.w3.org/2000/svg"><path d="M0 5h10M5 10V0"/></svg><svg viewBox="0 0 25 22" id="tg" xmlns="http://www.w3.org/2000/svg"><path fill-rule="evenodd" clip-rule="evenodd" d="M18.704 21.361c.327.247.75.308 1.126.157.376-.152.653-.494.737-.907.884-4.41 3.028-15.575 3.833-19.587a.874.874 0 00-.265-.819.778.778 0 00-.81-.15C19.059 1.73 5.92 6.962.552 9.071A.894.894 0 000 9.935a.887.887 0 00.604.825c2.408.765 5.569 1.829 5.569 1.829s1.477 4.736 2.247 7.144c.097.302.32.54.614.622a.846.846 0 00.825-.224l3.15-3.157s3.633 2.83 5.695 4.387zm-11.202-9.37l1.709 5.98.38-3.787 10.361-9.921a.313.313 0 00.034-.407.278.278 0 00-.383-.07l-12.1 8.204z"/></svg><svg viewBox="0 0 21 10" id="two-checks" xmlns="http://www.w3.org/2000/svg"><path d="M1 5.615L4.385 9 13 1M10 7.615L11.384 9l8.615-8"/></svg><svg viewBox="0 0 29 18" id="vk" xmlns="http://www.w3.org/2000/svg"><path d="M15.903 17.392c.736 0 1.037-.504 1.029-1.137-.038-2.382.862-3.665 2.488-1.993 1.797 1.849 2.17 3.13 4.353 3.13h3.867c.976 0 1.36-.323 1.36-.83 0-1.073-1.717-2.965-3.172-4.355-2.037-1.945-2.132-1.99-.378-4.332 2.176-2.907 5.023-6.632 2.505-6.632h-4.81c-.933 0-1 .54-1.333 1.346-1.202 2.917-3.487 6.695-4.355 6.117-.907-.603-.492-2.99-.423-6.538.018-.938.014-1.58-1.378-1.913-.76-.18-1.5-.255-2.186-.255-2.747 0-4.641 1.184-3.565 1.39 1.899.365 1.716 4.59 1.274 6.414-.77 3.176-3.668-2.516-4.875-5.35-.292-.682-.381-1.211-1.42-1.211H.95c-.595 0-.951.199-.951.641 0 .748 3.577 8.352 6.991 12.143 3.33 3.697 6.622 3.365 8.912 3.365z"/></svg><svg viewBox="0 0 16 17" id="watch" xmlns="http://www.w3.org/2000/svg"><circle cx="8" cy="8" r="7"/><path d="M7.486 4.578v3.503l2.5 2.5"/></svg></svg>