<?xml version="1.0" encoding="utf-8"?><svg viewBox="0 0 140 139" xmlns="http://www.w3.org/2000/svg" xmlns:xlink="http://www.w3.org/1999/xlink"><style>:root>svg{display:none}:root>svg:target{display:block}</style><svg viewBox="0 0 16 16" id="arrow-for-button" xmlns="http://www.w3.org/2000/svg"><path d="M15.707 8.707a1 1 0 000-1.414L9.343.929A1 1 0 007.93 2.343L13.586 8l-5.657 5.657a1 1 0 101.414 1.414l6.364-6.364zM0 9h15V7H0v2z"/></svg><svg viewBox="0 0 16 15" id="author" xmlns="http://www.w3.org/2000/svg"><path fill-rule="evenodd" clip-rule="evenodd" d="M8 8a3 3 0 100-6 3 3 0 000 6zm0 2A5 5 0 108 0a5 5 0 000 10z"/><path fill-rule="evenodd" clip-rule="evenodd" d="M15.939 15A8.004 8.004 0 00.063 15h15.876zM2.803 13h10.395a6.001 6.001 0 00-10.395 0z"/></svg><svg fill="none" viewBox="0 0 31 30" id="chain" xmlns="http://www.w3.org/2000/svg"><path fill-rule="evenodd" clip-rule="evenodd" d="M11.184 9.943a4.5 4.5 0 016.363 0l1.5 1.5a1.5 1.5 0 11-2.122 2.12l-1.499-1.499a1.5 1.5 0 00-2.121 0l-9.723 9.723a1.5 1.5 0 000 2.122l2.481 2.481a1.5 1.5 0 002.122 0l3.568-3.568a1.5 1.5 0 112.121 2.121l-3.568 3.568a4.5 4.5 0 01-6.364 0L1.461 26.03a4.5 4.5 0 010-6.364l9.723-9.723z" fill="#F8F8F4"/><path fill-rule="evenodd" clip-rule="evenodd" d="M19.617 20.229a4.5 4.5 0 01-6.364 0l-1.499-1.5a1.5 1.5 0 112.121-2.12l1.5 1.498a1.5 1.5 0 002.121 0l9.723-9.722a1.5 1.5 0 000-2.122l-2.482-2.481a1.5 1.5 0 00-2.121 0L19.048 7.35a1.5 1.5 0 11-2.122-2.121l3.569-3.568a4.5 4.5 0 016.364 0l2.481 2.481a4.5 4.5 0 010 6.364l-9.723 9.723z" fill="#F8F8F4"/></svg><svg viewBox="0 0 16 9" id="check-arrow" xmlns="http://www.w3.org/2000/svg"><path fill-rule="evenodd" clip-rule="evenodd" d="M.47 8.53a.75.75 0 010-1.06l7-7a.75.75 0 011.06 0l7 7a.75.75 0 01-1.06 1.06L8 2.06 1.53 8.53a.75.75 0 01-1.06 0z"/></svg><svg viewBox="0 0 12 9" id="checkbox-galka" xmlns="http://www.w3.org/2000/svg"><path d="M2.38 3.735A1 1 0 00.965 5.149L2.38 3.735zm2.105 3.519l-.708.707a1 1 0 001.415 0l-.707-.707zm6.895-5.48A1 1 0 009.965.358l1.415 1.414zM.965 5.148L3.778 7.96l1.414-1.414L2.38 3.735.965 5.149zM5.192 7.96l6.188-6.188L9.965.36 3.777 6.547 5.192 7.96z"/></svg><svg viewBox="0 0 26 26" id="close-modal" xmlns="http://www.w3.org/2000/svg"><path fill-rule="evenodd" clip-rule="evenodd" d="M11.586 13L.293 1.707 1.707.293 13 11.586 24.293.293l1.414 1.414L14.414 13l11.293 11.292-1.415 1.415L13 14.414 1.708 25.707.293 24.292 11.586 13z"/></svg><svg viewBox="0 0 140 139" id="cross" xmlns="http://www.w3.org/2000/svg"><path d="M109.713.438L70.312 39.84 30.757.285.9 30.142l39.555 39.555L1.062 109.08l29.857 29.857 39.393-39.384 39.239 39.24 29.857-29.857-39.239-39.24 39.401-39.401L109.713.438z" fill="#2DAB49"/></svg><svg viewBox="0 0 15 28" id="fb" xmlns="http://www.w3.org/2000/svg"><path fill-rule="evenodd" clip-rule="evenodd" d="M9.824.05C8.207.298 7.072.835 6.14 1.793c-.784.806-1.273 1.752-1.55 2.997-.105.47-.118.755-.14 2.97l-.023 2.45H0v4.98l4.407.028L4.435 28h5.276V15.19h2.19c1.204 0 2.19-.005 2.191-.013.147-.997.647-4.898.631-4.926-.012-.023-1.146-.041-2.52-.041H9.704l.019-2.04c.019-1.994.022-2.046.152-2.363.262-.641.816-1.02 1.642-1.125.226-.029 1.088-.053 1.914-.054l1.502-.002-.029-4.461-.73-.065c-1.196-.106-3.791-.136-4.35-.05z"/></svg><svg fill="none" viewBox="0 0 15 28" id="fbo90i--+" xmlns="http://www.w3.org/2000/svg"><path fill-rule="evenodd" clip-rule="evenodd" d="M9.824.05C8.207.298 7.072.835 6.14 1.793c-.784.806-1.273 1.752-1.55 2.997-.105.47-.118.755-.14 2.97l-.023 2.45H0v4.98l4.407.028L4.435 28h5.276V15.19h2.19c1.204 0 2.19-.005 2.191-.013.147-.997.647-4.898.631-4.926-.012-.023-1.146-.041-2.52-.041H9.704l.019-2.04c.019-1.994.022-2.046.152-2.363.262-.641.816-1.02 1.642-1.125.226-.029 1.088-.053 1.914-.054l1.502-.002-.029-4.461-.73-.065c-1.196-.106-3.791-.136-4.35-.05z" fill="#F8F8F4"/></svg><svg viewBox="0 0 27 19" id="galka" xmlns="http://www.w3.org/2000/svg"><path fill-rule="evenodd" clip-rule="evenodd" d="M26.167.469a1 1 0 010 1.414l-16.5 16.5a1 1 0 01-1.415 0l-7.5-7.498A1 1 0 012.168 9.47l6.792 6.792L24.753.469a1 1 0 011.414 0z"/></svg><svg viewBox="0 0 22 22" id="ig" xmlns="http://www.w3.org/2000/svg"><path fill-rule="evenodd" clip-rule="evenodd" d="M2.74 0A2.74 2.74 0 000 2.74v16.52A2.74 2.74 0 002.74 22h16.52A2.74 2.74 0 0022 19.26V2.74A2.74 2.74 0 0019.26 0H2.74zM19 4.5a1.5 1.5 0 11-3 0 1.5 1.5 0 013 0zM17 12a6 6 0 11-12 0 6 6 0 0112 0z"/><circle cx="11" cy="12" r="4"/></svg><svg viewBox="0 0 53 19" id="logo" xmlns="http://www.w3.org/2000/svg"><path d="M22.194 2.461L18.02 6.61l-4.19-4.164-3.163 3.143 4.19 4.163-4.173 4.146 3.163 3.143 4.173-4.146 4.157 4.13 3.163-3.142-4.157-4.13 4.174-4.148-3.163-3.143zM0 4.803h2.352v13.704h5.33V4.803h2.34V.469H0v4.334zM32.851.469h-6.17v18.038h6.182c2.02 0 3.592-.529 4.716-1.585 1.123-1.057 1.678-2.607 1.678-4.663V6.716c0-2.054-.567-3.605-1.69-4.662C36.443.997 34.87.469 32.85.469zm1.088 12.025c0 1.116-.366 1.68-1.088 1.68h-.85V4.803h.85c.722 0 1.088.563 1.088 1.68v6.011zM46.453 8.526v3.852h1.217v.599c0 1.115-.366 1.68-1.087 1.68-.722 0-1.088-.564-1.088-1.68V6c0-1.115.366-1.68 1.088-1.68.721 0 1.087.564 1.087 1.68v1.327h5.319v-1.08c0-2.055-.567-3.606-1.691-4.663C50.175.528 48.604 0 46.583 0c-2.022 0-3.593.528-4.717 1.585-1.123 1.057-1.69 2.62-1.69 4.674v6.482c0 2.055.462 3.617 1.372 4.674.91 1.057 2.186 1.585 3.83 1.585 1.926 0 3.344-.717 4.242-2.137v1.656H53V8.538l-6.547-.012z"/></svg><svg viewBox="0 0 10 10" id="plus-small" xmlns="http://www.w3.org/2000/svg"><path fill-rule="evenodd" clip-rule="evenodd" d="M6 6v4H4V6H0V4h4V0h2v4h4v2H6z"/></svg><svg viewBox="0 0 25 22" id="tg" xmlns="http://www.w3.org/2000/svg"><path fill-rule="evenodd" clip-rule="evenodd" d="M18.704 21.361c.327.247.75.308 1.126.157.376-.152.653-.494.737-.907.884-4.41 3.028-15.575 3.833-19.587a.874.874 0 00-.265-.819.778.778 0 00-.81-.15C19.059 1.73 5.92 6.962.552 9.071A.894.894 0 000 9.935a.887.887 0 00.604.825c2.408.765 5.569 1.829 5.569 1.829s1.477 4.736 2.247 7.144c.097.302.32.54.614.622a.846.846 0 00.825-.224l3.15-3.157s3.633 2.83 5.695 4.387zm-11.202-9.37l1.709 5.98.38-3.787 10.361-9.921a.313.313 0 00.034-.407.278.278 0 00-.383-.07l-12.1 8.204z"/></svg><svg viewBox="0 0 21 10" id="two-checks" xmlns="http://www.w3.org/2000/svg"><path fill-rule="evenodd" clip-rule="evenodd" d="M13.733.32a1 1 0 01-.053 1.413l-8.615 8a1 1 0 01-1.387-.026L.293 6.322a1 1 0 011.414-1.414L4.41 7.612 12.32.267a1 1 0 011.413.053zM20.732.32a1 1 0 01-.052 1.413l-8.615 8a1 1 0 01-1.388-.026L9.293 8.322a1 1 0 111.414-1.414l.703.703L19.319.267a1 1 0 011.413.053z"/></svg><svg viewBox="0 0 29 18" id="vk" xmlns="http://www.w3.org/2000/svg"><path d="M15.903 17.392c.736 0 1.037-.504 1.029-1.137-.038-2.382.862-3.665 2.488-1.993 1.797 1.849 2.17 3.13 4.353 3.13h3.867c.976 0 1.36-.323 1.36-.83 0-1.073-1.717-2.965-3.172-4.355-2.037-1.945-2.132-1.99-.378-4.332 2.176-2.907 5.023-6.632 2.505-6.632h-4.81c-.933 0-1 .54-1.333 1.346-1.202 2.917-3.487 6.695-4.355 6.117-.907-.603-.492-2.99-.423-6.538.018-.938.014-1.58-1.378-1.913-.76-.18-1.5-.255-2.186-.255-2.747 0-4.641 1.184-3.565 1.39 1.899.365 1.716 4.59 1.274 6.414-.77 3.176-3.668-2.516-4.875-5.35-.292-.682-.381-1.211-1.42-1.211H.95c-.595 0-.951.199-.951.641 0 .748 3.577 8.352 6.991 12.143 3.33 3.697 6.622 3.365 8.912 3.365z"/></svg><svg viewBox="0 0 18 18" id="watch" xmlns="http://www.w3.org/2000/svg"><path fill-rule="evenodd" clip-rule="evenodd" d="M9 2a7 7 0 100 14A7 7 0 009 2zM0 9a9 9 0 1118 0A9 9 0 010 9zm8.486-4.423a1 1 0 011 1v3.09l2.207 2.206a1 1 0 01-1.415 1.414L7.486 9.495V5.577a1 1 0 011-1z"/></svg></svg>