
<svg id="author" width="16" height="15" viewBox="0 0 16 15" xmlns="http://www.w3.org/2000/svg">
    <path fill-rule="evenodd" clip-rule="evenodd" d="M8 8C9.65685 8 11 6.65685 11 5C11 3.34315 9.65685 2 8 2C6.34315 2 5 3.34315 5 5C5 6.65685 6.34315 8 8 8ZM8 10C10.7614 10 13 7.76142 13 5C13 2.23858 10.7614 0 8 0C5.23858 0 3 2.23858 3 5C3 7.76142 5.23858 10 8 10Z" />
    <path fill-rule="evenodd" clip-rule="evenodd" d="M15.9387 15C15.8516 14.3014 15.6744 13.6307 15.4191 13C14.2323 10.0682 11.3574 8 8 8C4.64262 8 1.7689 10.0682 0.582123 13C0.326824 13.6307 0.149619 14.3014 0.0625 15H15.9387ZM2.80284 13H13.1984C12.1608 11.2069 10.2202 10 8 10C5.77977 10 3.84041 11.2069 2.80284 13Z" />
</svg>