<svg width="31" height="30" viewBox="0 0 31 30" fill="none" xmlns="http://www.w3.org/2000/svg">
<path fill-rule="evenodd" clip-rule="evenodd" d="M11.1835 9.94302C12.9408 8.18566 15.7901 8.18566 17.5474 9.94302L19.0468 11.4424C19.6326 12.0282 19.6326 12.9779 19.0468 13.5637C18.461 14.1495 17.5113 14.1495 16.9255 13.5637L15.4261 12.0643C14.8403 11.4786 13.8906 11.4786 13.3048 12.0643L3.58192 21.7872C2.99613 22.373 2.99613 23.3227 3.58192 23.9085L6.06342 26.39C6.6492 26.9758 7.59895 26.9758 8.18474 26.39L11.7531 22.8217C12.3389 22.2359 13.2886 22.2359 13.8744 22.8217C14.4602 23.4075 14.4602 24.3572 13.8744 24.943L10.3061 28.5114C8.5487 30.2687 5.69946 30.2687 3.9421 28.5114L1.4606 26.0299C-0.296759 24.2725 -0.296764 21.4233 1.4606 19.6659L11.1835 9.94302Z" fill="#F8F8F4"/>
<path fill-rule="evenodd" clip-rule="evenodd" d="M19.6173 20.2289C17.8599 21.9862 15.0107 21.9862 13.2533 20.2289L11.754 18.7295C11.1682 18.1437 11.1682 17.194 11.754 16.6082C12.3398 16.0224 13.2895 16.0224 13.8753 16.6082L15.3747 18.1075C15.9605 18.6933 16.9102 18.6933 17.496 18.1075L27.2189 8.38466C27.8046 7.79887 27.8047 6.84913 27.2189 6.26334L24.7374 3.78184C24.1516 3.19606 23.2018 3.19606 22.616 3.78184L19.0477 7.35018C18.4619 7.93596 17.5122 7.93596 16.9264 7.35018C16.3406 6.76439 16.3406 5.81464 16.9264 5.22886L20.4947 1.66052C22.2521 -0.0968361 25.1013 -0.096838 26.8587 1.66052L29.3402 4.14202C31.0975 5.89938 31.0975 8.74862 29.3402 10.506L19.6173 20.2289Z" fill="#F8F8F4"/>
</svg>
