<svg id="check-arrow" viewBox="0 0 16 9" xmlns="http://www.w3.org/2000/svg">
    <path d="M0.46967 7.46967C0.176777 7.76256 0.176777 8.23744 0.46967 8.53033C0.762563 8.82322 1.23744 8.82322 1.53033 8.53033L0.46967 7.46967ZM8 1L8.53033 0.469669C8.23744 0.176776 7.76256 0.176776 7.46967 0.469669L8 1ZM14.4697 8.53033C14.7626 8.82322 15.2374 8.82322 15.5303 8.53033C15.8232 8.23744 15.8232 7.76256 15.5303 7.46967L14.4697 8.53033ZM1.53033 8.53033L8.53033 1.53033L7.46967 0.469669L0.46967 7.46967L1.53033 8.53033ZM7.46967 1.53033L14.4697 8.53033L15.5303 7.46967L8.53033 0.469669L7.46967 1.53033Z"
    />
</svg>
