
    <svg id='checkbox-galka' viewBox="0 0 12 9" xmlns="http://www.w3.org/2000/svg">
        <path d="M2.37958 3.73467C1.98906 3.34415 1.3559 3.34415 0.965371 3.73467C0.574848 4.1252 0.574847 4.75836 0.965371 5.14889L2.37958 3.73467ZM4.4846 7.25391L3.7775 7.96101C4.16802 8.35154 4.80119 8.35154 5.19171 7.96101L4.4846 7.25391ZM11.3796 1.77314C11.7701 1.38262 11.7701 0.749451 11.3796 0.358927C10.9891 -0.0315976 10.3559 -0.0315976 9.96537 0.358927L11.3796 1.77314ZM0.965371 5.14889L3.7775 7.96101L5.19171 6.5468L2.37958 3.73467L0.965371 5.14889ZM5.19171 7.96101L11.3796 1.77314L9.96537 0.358927L3.7775 6.5468L5.19171 7.96101Z"/>
    </svg>