<svg width="15" height="28" viewBox="0 0 15 28" fill="none" xmlns="http://www.w3.org/2000/svg">
<path fill-rule="evenodd" clip-rule="evenodd" d="M9.82375 0.0498633C8.20732 0.297835 7.07192 0.83516 6.14046 1.79289C5.35624 2.59926 4.86691 3.54533 4.58999 4.79033C4.48541 5.2606 4.47205 5.54481 4.45044 7.75996L4.42653 10.2096H0V15.1896L4.40665 15.2183L4.43517 28H9.71148V15.1909H11.9008C13.1049 15.1909 14.091 15.1847 14.0921 15.1772C14.239 14.1803 14.7389 10.2791 14.7233 10.2506C14.711 10.228 13.5766 10.2096 12.2025 10.2096H9.70412L9.72298 8.17051C9.74151 6.17623 9.74482 6.12434 9.87461 5.80745C10.1375 5.16552 10.6908 4.78622 11.5169 4.68167C11.7435 4.65299 12.6049 4.62874 13.4311 4.62781L14.9333 4.62611L14.904 0.164817L14.1743 0.100169C12.9777 -0.00586182 10.3826 -0.0358592 9.82375 0.0498633Z" fill="#F8F8F4"/>
</svg>
