<svg id='galka' width="27" height="19" viewBox="0 0 27 19" xmlns="http://www.w3.org/2000/svg">
    <path d="M2.16705 9.46967C1.77652 9.07915 1.14336 9.07915 0.752835 9.46967C0.362312 9.8602 0.362311 10.4934 0.752835 10.8839L2.16705 9.46967ZM8.95895 17.6758L8.25184 18.3829C8.64236 18.7734 9.27553 18.7734 9.66605 18.3829L8.95895 17.6758ZM26.167 1.88189C26.5576 1.49137 26.5576 0.858206 26.167 0.467681C25.7765 0.0771562 25.1434 0.0771565 24.7528 0.467681L26.167 1.88189ZM0.752835 10.8839L8.25184 18.3829L9.66605 16.9687L2.16705 9.46967L0.752835 10.8839ZM9.66605 18.3829L26.167 1.88189L24.7528 0.467681L8.25184 16.9687L9.66605 18.3829Z"
    />
</svg>