<svg id="ig" viewBox="0 0 22 22" xmlns="http://www.w3.org/2000/svg">
    <path fill-rule="evenodd" clip-rule="evenodd"
          d="M2.74018 0C1.22682 0 0 1.22682 0 2.74018V19.2598C0 20.7732 1.22682 22 2.74018 22H19.2598C20.7732 22 22 20.7732 22 19.2598V2.74018C22 1.22682 20.7732 0 19.2598 0H2.74018ZM19 4.5C19 5.32843 18.3284 6 17.5 6C16.6716 6 16 5.32843 16 4.5C16 3.67157 16.6716 3 17.5 3C18.3284 3 19 3.67157 19 4.5ZM17 12C17 15.3137 14.3137 18 11 18C7.68629 18 5 15.3137 5 12C5 8.68629 7.68629 6 11 6C14.3137 6 17 8.68629 17 12Z"/>
    <circle cx="11" cy="12" r="4"/>
</svg>