<svg id="logo" viewBox="0 0 53 19" xmlns="http://www.w3.org/2000/svg">
    <path d="M22.1942 2.46141L18.0202 6.60872L13.8299 2.44531L10.667 5.58799L14.8572 9.7514L10.6841 13.8968L13.8471 17.0395L18.0202 12.8941L22.1771 17.0244L25.34 13.8817L21.1831 9.7514L25.3572 5.60409L22.1942 2.46141Z"/>
    <path d="M0 4.8026H2.35195V18.5067H7.68292V4.8026H10.0225V0.46875H0V4.8026Z"/>
    <path d="M32.8512 0.46875H26.6816V18.5067H32.8627C34.8839 18.5067 36.4554 17.9784 37.579 16.9217C38.7025 15.8649 39.2572 14.3149 39.2572 12.2592V6.71623C39.2572 4.66151 38.6901 3.11053 37.5666 2.05382C36.443 0.997107 34.8715 0.46875 32.8512 0.46875ZM33.9386 12.4941C33.9386 13.6095 33.5726 14.1738 32.8512 14.1738H32.0002V4.8026H32.8512C33.5726 4.8026 33.9386 5.36599 33.9386 6.48236V12.4941Z"/>
    <path d="M46.4531 8.52567V12.3776H47.67V12.9769C47.67 14.0923 47.3041 14.6567 46.5827 14.6567C45.8613 14.6567 45.4953 14.0933 45.4953 12.9769V6.0013C45.4953 4.88588 45.8613 4.32154 46.5827 4.32154C47.3041 4.32154 47.67 4.88493 47.67 6.0013V7.32787H52.9886V6.24748C52.9886 4.19276 52.4216 2.64178 51.298 1.58507C50.1745 0.528356 48.604 0 46.5827 0C44.5614 0 42.99 0.528356 41.8664 1.58507C40.7428 2.64178 40.1768 4.20413 40.1768 6.25885V12.7412C40.1768 14.7959 40.638 16.3582 41.5481 17.4149C42.4582 18.4716 43.7342 19 45.3772 19C47.3041 19 48.7221 18.2832 49.6198 16.8629V18.519H53V8.53797L46.4531 8.52567Z"/>
</svg>