<svg viewBox="0 0 19 18" xmlns="http://www.w3.org/2000/svg">
<g clip-path="url(#clip0_472_5056)">
<path fill-rule="evenodd" clip-rule="evenodd" d="M0 3C0 2.44772 0.447715 2 1 2H18C18.5523 2 19 2.44772 19 3V13C19 13.5523 18.5523 14 18 14H9.35078L4.62469 17.7809C4.32452 18.021 3.91328 18.0678 3.56681 17.9013C3.22035 17.7348 3 17.3844 3 17V14H1C0.447715 14 0 13.5523 0 13V3ZM2 4V12H4C4.55228 12 5 12.4477 5 13V14.9194L8.37531 12.2191C8.55262 12.0773 8.77293 12 9 12H17V4H2Z" />
<path fill-rule="evenodd" clip-rule="evenodd" d="M4 8C4 7.44772 4.44772 7 5 7H6C6.55228 7 7 7.44772 7 8C7 8.55228 6.55228 9 6 9H5C4.44772 9 4 8.55228 4 8Z" />
<path fill-rule="evenodd" clip-rule="evenodd" d="M8 8C8 7.44772 8.44772 7 9 7H10C10.5523 7 11 7.44772 11 8C11 8.55228 10.5523 9 10 9H9C8.44772 9 8 8.55228 8 8Z" />
<path fill-rule="evenodd" clip-rule="evenodd" d="M12 8C12 7.44772 12.4477 7 13 7H14C14.5523 7 15 7.44772 15 8C15 8.55228 14.5523 9 14 9H13C12.4477 9 12 8.55228 12 8Z" />
</g>
<defs>
<clipPath id="clip0_472_5056">
<rect width="19" height="18" fill="white"/>
</clipPath>
</defs>
</svg>
