<svg id="tg" viewBox="0 0 25 22" xmlns="http://www.w3.org/2000/svg">
    <path fill-rule="evenodd" clip-rule="evenodd"
          d="M18.7037 21.3615C19.0313 21.6077 19.4535 21.6693 19.8299 21.5181C20.2064 21.3658 20.4831 21.0245 20.5665 20.6109C21.4506 16.2002 23.5952 5.03621 24.3999 1.024C24.461 0.721601 24.3592 0.407321 24.1354 0.20536C23.9116 0.00340015 23.6013 -0.05492 23.3246 0.0541601C19.0588 1.73032 5.92149 6.96293 0.551818 9.07217C0.211 9.20609 -0.0107863 9.55385 0.000404764 9.93509C0.0126132 10.3174 0.254747 10.649 0.603704 10.7602C3.01181 11.5249 6.17278 12.5887 6.17278 12.5887C6.17278 12.5887 7.64999 17.3245 8.42014 19.7329C8.51679 20.0353 8.7396 20.2729 9.03361 20.3549C9.32662 20.4359 9.63997 20.3506 9.8587 20.1314C11.0958 18.8915 13.0085 16.9745 13.0085 16.9745C13.0085 16.9745 16.6425 19.8031 18.7037 21.3615ZM7.50248 11.9903L9.21064 17.9714L9.59011 14.1838C9.59011 14.1838 16.1898 7.86473 19.952 4.26293C20.0619 4.15708 20.0771 3.97996 19.9856 3.85576C19.895 3.73156 19.7282 3.7024 19.6031 3.78664C15.2426 6.74261 7.50248 11.9903 7.50248 11.9903Z"/>
</svg>
