<svg  viewBox="0 0 21 10"  xmlns="http://www.w3.org/2000/svg">
<path fill-rule="evenodd" clip-rule="evenodd" d="M13.7328 0.319553C14.1086 0.724264 14.0852 1.35699 13.6805 1.7328L5.06507 9.7328C4.67091 10.0988 4.05785 10.0875 3.67751 9.70711L0.292893 6.3225C-0.0976311 5.93197 -0.0976311 5.29881 0.292893 4.90828C0.683417 4.51776 1.31658 4.51776 1.70711 4.90828L4.41032 7.6115L12.3195 0.267211C12.7243 -0.108592 13.357 -0.0851575 13.7328 0.319553Z"/>
<path fill-rule="evenodd" clip-rule="evenodd" d="M20.7322 0.319553C21.108 0.724264 21.0846 1.357 20.6799 1.7328L12.0645 9.7328C11.6702 10.0989 11.0571 10.0874 10.6768 9.70696L9.29274 8.32234C8.9023 7.93173 8.90244 7.29857 9.29305 6.90813C9.68366 6.51769 10.3168 6.51783 10.7073 6.90844L11.4099 7.61135L19.319 0.267211C19.7237 -0.108592 20.3564 -0.0851574 20.7322 0.319553Z"/>
</svg>
