<svg id='vk' viewBox="0 0 29 18" xmlns="http://www.w3.org/2000/svg">
    <path d="M15.9034 17.3923C16.6393 17.3923 16.9401 16.8877 16.9317 16.2551C16.8942 13.8726 17.7944 12.59 19.4195 14.2616C21.2175 16.1109 21.5896 17.3923 23.773 17.3923H27.6395C28.6158 17.3923 29 17.0692 29 16.5621C29 15.4895 27.283 13.5967 25.8283 12.2072C23.7911 10.2621 23.6956 10.2162 25.4501 7.87464C27.6262 4.96764 30.4729 1.24284 27.9548 1.24284H23.1447C22.2119 1.24284 22.1442 1.78348 21.8119 2.58884C20.6097 5.50578 18.3248 9.28402 17.4573 8.7061C16.5499 8.10332 16.9655 5.71583 17.0344 2.16751C17.0525 1.23041 17.0477 0.587864 15.6557 0.254782C14.8957 0.0745704 14.1562 0 13.4699 0C10.7235 0 8.82892 1.18443 9.9055 1.39074C11.8037 1.75489 11.6213 5.97931 11.179 7.8038C10.4081 10.9805 7.51069 5.28829 6.30361 2.45337C6.01242 1.77229 5.923 1.24284 4.88388 1.24284H0.950919C0.356443 1.24284 0 1.4417 0 1.88415C0 2.63234 3.57652 10.236 6.99113 14.0267C10.3212 17.7242 13.6125 17.3923 15.9034 17.3923Z"/>
</svg>