<svg viewBox="0 0 18 18"  xmlns="http://www.w3.org/2000/svg">
<path fill-rule="evenodd" clip-rule="evenodd" d="M9 2C5.13401 2 2 5.13401 2 9C2 12.866 5.13401 16 9 16C12.866 16 16 12.866 16 9C16 5.13401 12.866 2 9 2ZM0 9C0 4.02944 4.02944 0 9 0C13.9706 0 18 4.02944 18 9C18 13.9706 13.9706 18 9 18C4.02944 18 0 13.9706 0 9ZM8.48555 4.57717C9.03784 4.57717 9.48555 5.02488 9.48555 5.57717V8.66608L11.6927 10.8732C12.0832 11.2637 12.0832 11.8969 11.6927 12.2874C11.3021 12.6779 10.669 12.6779 10.2784 12.2874L7.48555 9.49451V5.57717C7.48555 5.02488 7.93327 4.57717 8.48555 4.57717Z"/>
</svg>
